PathFileType  4	(X/Y/Z) C:\Users\antoi\Documents\MyRepositories\mobilecap\ResultsAnalysis
DataRate	CameraRate	NumFrames	NumMarkers	Units	OrigDataRate	OrigDataStartFrame	OrigNumFrames
100.0	100.0	4	51	mm	100.0	1	248
Frame#	Time	r_knee			r_shank_antsup			r_ankle			r_calc			r_5meta			r_toe			L_knee			L_shank_antsup			L_ankle			L_calc			L_5meta			L_toe			r_sh2			r_sh3			r_sh4			L_sh2			L_sh3			r_thigh1			r_thigh2			r_thigh3			r_thigh4			r_thigh5			L_thigh1			L_thigh2			L_thigh3			L_thigh4			r.ASIS			r.PSIS			L.ASIS			L.PSIS			C7			R_Shoulder			L_Shoulder			R_Sternum			L_Sternum			R_humerus			R_elbow_med			R_elbow_lat			R_forearm			R_wrist_radius			R_wrist_ulna			L_humerus			L_elbow_med			L_elbow_lat			L_forearm			L_wrist_radius			L_wrist_ulna			R_HJC			L_HJC			R_HJC_reg			L_HJC_reg			
		X1	Y1	Z1	X2	Y2	Z2	X3	Y3	Z3	X4	Y4	Z4	X5	Y5	Z5	X6	Y6	Z6	X7	Y7	Z7	X8	Y8	Z8	X9	Y9	Z9	X10	Y10	Z10	X11	Y11	Z11	X12	Y12	Z12	X13	Y13	Z13	X14	Y14	Z14	X15	Y15	Z15	X16	Y16	Z16	X17	Y17	Z17	X18	Y18	Z18	X19	Y19	Z19	X20	Y20	Z20	X21	Y21	Z21	X22	Y22	Z22	X23	Y23	Z23	X24	Y24	Z24	X25	Y25	Z25	X26	Y26	Z26	X27	Y27	Z27	X28	Y28	Z28	X29	Y29	Z29	X30	Y30	Z30	X31	Y31	Z31	X32	Y32	Z32	X33	Y33	Z33	X34	Y34	Z34	X35	Y35	Z35	X36	Y36	Z36	X37	Y37	Z37	X38	Y38	Z38	X39	Y39	Z39	X40	Y40	Z40	X41	Y41	Z41	X42	Y42	Z42	X43	Y43	Z43	X44	Y44	Z44	X45	Y45	Z45	X46	Y46	Z46	X47	Y47	Z47	X48	Y48	Z48	X49	Y49	Z49	X50	Y50	Z50	X51	Y51	Z51	

1	0.00000000	-1109.43937	848.47077	-421.09631	-1093.39750	719.88680	-432.09188	-1232.75927	408.50807	-426.45725	-1300.76099	373.87406	-472.16405	-1100.66626	343.95750	-384.59865	-1063.91970	366.15998	-460.00020	-1137.62451	839.60472	-752.13856	-1107.78258	727.17319	-735.16664	-1252.00684	404.83868	-735.37908	-1315.50501	377.17332	-689.45079	-1110.78272	343.77691	-762.66260	-1079.67822	366.83780	-693.03967	-1113.15697	607.01399	-452.21584	-1152.96214	719.90053	-380.16447	-1162.69486	602.87623	-383.52954	-1187.07336	742.10913	-776.97783	-1187.74529	621.08640	-790.68447	-1008.41488	1080.73882	-442.09510	-1016.93438	969.27271	-457.15754	-1040.88988	940.73589	-401.29379	-1088.56149	1073.66206	-360.24895	-1091.33404	955.22750	-384.36886	-1052.30748	1094.43510	-766.60404	-1050.18529	955.54147	-755.99554	-1165.73089	1085.30933	-809.62705	-1158.95956	946.23388	-781.56026	-1035.55864	1343.76950	-441.74637	-1238.63805	1408.26987	-516.70536	-1048.07975	1335.77989	-706.06219	-1245.23799	1404.59559	-618.97337	-1132.53753	1895.67837	-573.50256	-1071.42968	1818.98416	-387.92884	-1071.71867	1839.10297	-750.98478	-1004.61808	1801.97851	-552.49017	-1005.07908	1798.80220	-597.44840	-1088.14172	1650.99002	-313.84457	-1192.02069	1440.07835	-360.08405	-1174.17089	1464.87211	-278.14783	-1085.35544	1312.88894	-273.54838	-1057.47180	1193.35882	-268.36796	-1087.14888	1185.39535	-239.87048	-1097.08034	1668.81089	-837.62435	-1208.66415	1472.65788	-796.34681	-1176.09610	1483.83227	-870.45384	-1086.51535	1340.41454	-853.73715	-1063.30981	1225.41331	-876.44011	-1098.23806	1221.24635	-906.85134	-1131.67133	1277.21997	-470.83251	-1140.58152	1259.72494	-683.31929	-1121.89369	1277.32088	-471.57306	-1133.13899	1271.06047	-645.82205	
2	0.01000000	-1109.22062	848.90725	-420.70557	-1092.90285	719.91238	-431.92868	-1232.67835	408.50944	-426.38369	-1300.71880	373.90386	-472.07297	-1100.66888	344.03841	-384.54408	-1063.93216	366.12159	-459.96296	-1136.41116	839.11106	-751.98278	-1106.60808	726.81274	-735.05714	-1251.84949	404.90049	-735.44656	-1315.43620	377.27793	-689.59057	-1110.77372	343.79876	-762.65120	-1079.66073	366.84827	-693.03499	-1112.78832	606.94275	-452.29892	-1152.32374	719.91097	-380.22948	-1162.21608	602.90993	-383.50001	-1185.82390	741.88384	-777.00105	-1186.81695	620.81016	-790.59290	-1008.30743	1080.67203	-442.48084	-1015.57989	969.84781	-456.67824	-1040.68459	940.55238	-401.30782	-1088.41026	1073.54334	-360.34151	-1091.00819	954.92085	-384.67557	-1053.89324	1093.64412	-768.81946	-1049.49435	955.46962	-756.11717	-1167.19931	1082.01889	-810.56383	-1158.31431	945.44014	-781.28071	-1035.42375	1343.25508	-442.03630	-1237.91811	1408.99609	-516.95185	-1048.51013	1334.85179	-706.34931	-1244.99262	1405.27171	-619.01923	-1127.45776	1895.43171	-573.64237	-1066.75862	1818.59168	-388.11383	-1067.17727	1838.54625	-751.11719	-1000.32067	1800.72238	-552.69761	-1000.80467	1797.43409	-597.74521	-1085.12543	1650.86885	-313.78146	-1191.66624	1441.19975	-359.21193	-1173.38347	1465.92572	-277.35078	-1085.47053	1313.28493	-272.97011	-1058.32894	1193.55390	-267.85372	-1088.04344	1185.71184	-239.14858	-1094.12136	1668.73529	-837.97169	-1207.66193	1473.57400	-796.89601	-1175.21026	1484.36790	-870.93599	-1086.25897	1340.52171	-854.38237	-1063.70004	1225.36868	-876.81148	-1098.79912	1221.25976	-907.21356	-1132.02135	1277.33266	-470.88139	-1141.44614	1259.49128	-683.31708	-1122.01633	1277.28617	-471.42495	-1134.09305	1270.92870	-645.63900	
3	0.02000000	-1108.60802	848.64125	-420.78627	-1092.49054	719.87955	-431.94509	-1232.63125	408.55157	-426.34364	-1300.72735	373.95123	-472.06408	-1100.65481	344.03014	-384.48840	-1063.94877	366.10643	-459.92926	-1135.22573	838.73110	-752.08024	-1105.54722	726.45044	-735.07952	-1251.75330	404.92320	-735.47934	-1315.41306	377.33794	-689.61468	-1110.76748	343.80054	-762.63957	-1079.65799	366.85087	-693.03389	-1112.45409	606.81893	-452.36956	-1151.70521	719.90692	-380.32669	-1161.85352	602.90254	-383.52170	-1184.68166	741.69967	-777.01668	-1186.12708	620.65150	-790.48804	-1008.26100	1080.56820	-442.84224	-1014.84712	969.98594	-456.60409	-1040.28395	940.46662	-401.21899	-1088.37272	1073.43422	-360.36887	-1090.57158	954.74824	-384.81698	-1054.56452	1093.26853	-769.74718	-1048.88082	955.39470	-756.33573	-1167.77537	1080.39176	-810.43760	-1157.70695	944.82375	-781.21953	-1035.19675	1342.73400	-442.22248	-1237.35177	1409.71517	-516.94301	-1048.91018	1333.89693	-706.46664	-1244.71127	1405.85528	-618.85651	-1122.31904	1895.10525	-573.69186	-1061.93354	1818.07262	-388.28876	-1062.52436	1837.91834	-751.37850	-995.87491	1799.43698	-553.02665	-996.35479	1796.06630	-597.95554	-1082.03065	1650.71038	-313.64235	-1190.65054	1442.51921	-358.50396	-1172.48266	1466.94889	-276.52968	-1085.53120	1313.67313	-272.18705	-1059.17377	1193.79550	-267.20862	-1088.91214	1185.98899	-238.68363	-1091.17873	1668.48497	-838.27680	-1206.61684	1474.45350	-797.37016	-1174.38874	1484.87382	-871.23219	-1086.44020	1340.74824	-854.86853	-1064.05399	1225.34032	-877.34942	-1099.30731	1221.32983	-907.57572	-1132.31156	1277.42636	-470.73981	-1142.29730	1259.22139	-683.11904	-1122.25700	1277.30440	-471.26155	-1134.83362	1270.70834	-645.41707	
4	0.03000000	-1107.87153	848.09244	-421.08219	-1092.07433	719.73351	-432.07328	-1232.61032	408.64093	-426.31232	-1300.74750	373.99312	-472.06579	-1100.62811	344.01598	-384.41015	-1063.95356	366.13509	-459.93538	-1134.13140	838.40508	-752.26215	-1104.62408	726.09484	-735.17275	-1251.70329	404.91866	-735.48532	-1315.41896	377.35091	-689.57945	-1110.77083	343.78973	-762.63206	-1079.65682	366.84743	-693.03319	-1112.14787	606.67896	-452.41955	-1151.10509	719.85043	-380.53507	-1161.52508	602.85572	-383.57102	-1183.68708	741.51777	-776.92384	-1185.60635	620.57850	-790.43233	-1008.24131	1080.46603	-443.05471	-1014.45849	969.79627	-456.74263	-1039.72707	940.41998	-401.14604	-1088.36633	1073.24423	-360.39581	-1090.15804	954.56968	-384.93188	-1054.37334	1093.22332	-769.54069	-1048.40003	955.24725	-756.52135	-1167.50349	1080.24567	-809.42716	-1157.18615	944.32360	-781.27921	-1034.93614	1342.20296	-442.33932	-1236.84299	1410.41817	-516.69704	-1049.28396	1332.95846	-706.52683	-1244.40626	1406.39666	-618.63031	-1117.09374	1894.68286	-573.78290	-1056.97454	1817.39835	-388.49843	-1057.69294	1837.20308	-751.70251	-991.25725	1798.06279	-553.34053	-991.77876	1794.68714	-598.13103	-1078.87037	1650.47437	-313.49581	-1189.57603	1443.82125	-357.84626	-1171.51038	1467.98793	-275.77217	-1085.53602	1314.00930	-271.38212	-1059.99722	1194.03951	-266.52082	-1089.78481	1186.30093	-238.15162	-1088.17473	1668.17517	-838.72796	-1205.54025	1475.31011	-797.77762	-1173.51081	1485.52837	-871.70839	-1086.88387	1341.02419	-855.21800	-1064.36931	1225.37019	-878.11443	-1099.71011	1221.48846	-908.14681	-1132.55733	1277.49894	-470.50556	-1143.13429	1258.96241	-682.82748	-1122.54808	1277.32313	-471.09126	-1135.46603	1270.45440	-645.20507	
